<svg id="Ebene_1" data-name="Ebene 1" xmlns="http://www.w3.org/2000/svg" viewBox="0 0 13.73 6.65"><defs><style>.cls-1{fill:#91979c;}</style></defs><title>Ynfnite_contao_III</title><path class="cls-1" d="M10,9.87A3.88,3.88,0,0,1,7.27,8.35l1.09-1C9,8,9.46,8.37,10,8.37a1.82,1.82,0,1,0,0-3.65,1.8,1.8,0,0,0-1.34.59L5.45,8.76A3.32,3.32,0,1,1,3,3.22,3.77,3.77,0,0,1,5.7,4.68l-1.1,1A2.38,2.38,0,0,0,3,4.72a1.82,1.82,0,1,0,1.37,3L7.61,4.29A3.32,3.32,0,1,1,10,9.87Z" transform="translate(0.36 -3.22)"/></svg>